ModelForces
version=1
nRows=5
nColumns=94
inDegrees=yes

This file contains the forces exerted on a model during a simulation.

A force is a generalized force, meaning that it can be either a force (N) or a torque (Nm).

Units are S.I. units (second, meters, Newtons, ...)
Angles are in degrees.

endheader 
time	addbrev_l	addlong_l	addmagDist_l	addmagIsch_l	addmagMid_l	addmagProx_l	bflh_l	bfsh_l	edl_l	ehl_l	fdl_l	fhl_l	gaslat_l	gasmed_l	glmax1_l	glmax2_l	glmax3_l	glmed1_l	glmed2_l	glmed3_l	glmin1_l	glmin2_l	glmin3_l	grac_l	iliacus_l	perbrev_l	perlong_l	piri_l	psoas_l	recfem_l	sart_l	semimem_l	semiten_l	soleus_l	tfl_l	tibant_l	tibpost_l	vasint_l	vaslat_l	vasmed_l	addbrev_r	addlong_r	addmagDist_r	addmagIsch_r	addmagMid_r	addmagProx_r	bflh_r	bfsh_r	edl_r	ehl_r	fdl_r	fhl_r	gaslat_r	gasmed_r	glmax1_r	glmax2_r	glmax3_r	glmed1_r	glmed2_r	glmed3_r	glmin1_r	glmin2_r	glmin3_r	grac_r	iliacus_r	perbrev_r	perlong_r	piri_r	psoas_r	recfem_r	sart_r	semimem_r	semiten_r	soleus_r	tfl_r	tibant_r	tibpost_r	vasint_r	vaslat_r	vasmed_r	lumbar_extension	lumbar_bending	lumbar_rotation	arm_flex_l	arm_add_l	arm_rot_l	arm_flex_r	arm_add_r	arm_rot_r	elbow_flex_l	elbow_flex_r	pro_sup_l	pro_sup_r	
          6.07000000	         11.06016084	         14.42122335	          8.96741975	         80.80170357	          5.23799000	          4.68757138	         13.62556823	          3.69132944	         82.85320968	         43.02116846	          7.28159598	          8.59394550	         21.91222943	         42.11271792	          9.20405446	        187.52999076	          9.44432550	        225.49405163	          8.53724880	         11.76032257	        132.86060656	          2.14417800	          4.77303798	          3.98515209	        201.30208725	          7.77696274	         15.97909768	         17.22475354	          7.31540510	          0.01487568	          2.12756834	         55.71691781	        314.53603317	         51.00554416	        442.61453160	         43.80989649	         17.86829181	         21.94466024	        687.35752031	         28.96118526	          0.02761004	         11.73098077	         10.09888986	         12.60552461	          6.38611833	          1.28286917	         14.91947701	        432.33959544	        275.23341896	        176.27005018	          4.73826712	          9.14638526	        911.96965030	         18.53378916	         13.05028352	         22.38360754	         17.02523083	        560.29111059	        287.05250870	        258.96990434	         14.15636004	        220.85357233	        366.60509404	          6.91823257	          9.78132348	        110.06870552	        373.40952011	       1211.99001103	         17.57866315	          0.00007256	        138.52440121	        158.02338151	         81.56620526	         11.62492988	         14.58819715	        758.38290029	         17.58412806	         22.84987153	         65.98347122	         33.25319429	         62.36918862	        300.00000055	         -4.17052018	        -25.31785679	        -84.94829165	        -10.36242644	        -22.52757720	        -82.53035673	         -0.58862504	        -23.14629517	        -44.12467525	          0.06523954	          0.51258236	
          6.09026316	         12.55583092	         19.27481865	          7.66235388	         55.91223388	          7.98939261	          8.23215828	         53.75250722	        208.99128646	         58.55004927	          0.00000622	          0.00003241	          3.58583311	         23.24673184	         43.79869848	         34.94261406	         90.01502761	          9.20286239	         49.51711838	         28.04101075	         58.76048667	         49.01590603	          7.92560194	         35.43763122	          5.01299684	        206.64529520	         22.02553678	         39.82291779	          0.00012529	          3.63076255	         -0.00000521	         48.84249704	         59.19470911	        224.86902740	         52.77006586	         75.03649971	        155.45401717	          0.00001912	          6.59517637	        275.02545343	          9.06400362	          0.00028761	          3.74966095	          8.87715578	         10.77035744	          4.24515094	          0.00305774	        494.64820346	        271.18481573	          0.00011841	          0.00004627	          5.62661515	         12.14242940	        188.80747355	         58.38040714	        174.45274608	         31.69705900	         14.33747412	        461.24408369	        173.77125811	        316.16820993	         17.14585392	        269.47647720	        418.97550688	          3.71776089	          8.96137465	          0.00007382	        276.61468404	        843.95465594	         13.32676799	         -0.00001137	         96.41295154	        114.53246786	         48.90859804	         74.63920333	         18.54247209	        359.71324677	         21.62943103	         17.21456884	         43.80080914	         27.44809324	        148.28344754	        172.79817202	        120.55693918	         -7.23635779	        -29.81446462	          3.66887200	         53.43963979	         19.75676784	          5.69583171	        -14.91098033	         28.46170873	          0.33481443	          0.65141655	
          6.11052632	         13.70131694	         18.61497825	          9.12401139	         42.10186532	          9.77641516	          8.03548319	         44.45294986	        138.33053342	         42.34460159	         81.46922487	         41.83709191	          0.00007181	         21.89914963	         38.77702734	         14.94396931	         43.53391579	         66.94259636	         12.21056183	          6.90962479	         15.46386153	         22.14783254	          1.88847365	          0.55282022	          2.64557938	        150.43619349	         17.96915668	         30.95825086	        163.54026307	        640.01775030	         50.56353893	        171.90749536	         49.73334028	        157.28149169	         53.08053489	         23.90026617	         97.33412117	         21.58315968	          0.00447023	        132.82647730	          0.55649053	         -0.00002078	         -0.00003955	          7.82352802	          8.83463055	          3.02193349	         -0.00000607	        317.80408498	        171.41767855	        152.19882599	         91.64703840	          4.92315140	         11.02499475	        500.62944263	         37.97960296	        436.41305922	        585.15829142	         12.16766578	       1248.51034653	       1132.80100587	       1100.03814254	         14.12288715	        422.57316048	        621.94642412	          2.49923853	          7.42040579	        184.94484287	        185.54484463	       1453.45079313	         10.16650245	        315.04112690	         68.28532536	         74.58954764	         28.70381477	         29.79575275	         49.97863044	        275.25799885	         18.17172824	        207.68343569	        736.67399925	        245.83821244	        214.96427759	        228.70455279	        196.02192236	         -6.80064664	          0.75166713	         13.44544701	         77.83974201	         68.51363761	         41.66434507	        -10.49369949	         51.93975470	          0.53273310	          0.76420329	
          6.13078947	         55.92728429	        332.67524484	          8.71203261	         32.39379795	        510.58879821	        794.97088277	         36.37368537	         88.99526180	         34.02827244	         41.67463758	         50.01964699	        156.66408318	         13.64165583	         26.27448587	          8.44395580	         29.94923130	         49.55245695	          7.26992911	          3.30443906	          7.70439892	         15.43058824	          0.79923481	          0.00109389	        319.05651108	         37.95679750	          9.92810236	         19.80662585	         14.37062753	        927.82211991	         12.54870541	        102.17352461	         41.67235260	        105.29743422	         23.14546526	         10.50012849	         92.43609796	        153.29258635	         35.87126147	        113.23404371	         59.52159100	          1.68083267	          0.00787703	          8.78189477	          8.29317541	          5.83976596	          0.09867008	         46.38915322	        135.48273766	         45.23358030	         22.38905009	          3.79458357	          8.01391169	          2.13040258	          8.75021446	       1237.99590287	       1801.35644419	         17.77740525	        775.28697336	        967.09212681	        911.87526480	          9.21388817	        408.07722810	        600.70434032	          3.34799464	          4.26015784	         64.13444643	        216.71074959	       1616.17373880	          7.25441450	        495.59345079	         43.84586577	         58.97251858	         20.66194110	        363.72743079	         26.92470452	        152.34576678	         11.91706097	        350.60300574	        427.03495620	        141.76958777	        235.82927480	        260.03956292	        241.72125056	        -26.68743880	         -8.54392812	          7.90099501	         44.76865049	         59.24573690	         47.33821199	        -12.36678179	         21.33511315	          0.48213599	          0.62805742	
          6.15105263	        565.40789539	        738.89868220	        290.08511683	         21.22749140	        789.67076364	        706.50519974	         24.45490726	         17.92107564	         27.72478396	         65.18029803	         77.09064687	        138.96015382	         58.35238805	          1.46539625	          8.04452479	         26.38989913	         32.62542272	         16.25329127	          6.92537433	         11.20917346	         21.65965086	          2.49433695	         -0.00001663	        137.09002316	        594.84875665	          5.64840586	          7.43570647	          2.30896771	        803.43723846	         20.24163800	         65.71699314	         40.30596867	         23.07092212	        109.44861833	          8.88659289	        155.10682726	        151.23867857	         31.66529083	        112.31327479	         54.12633016	          6.08997160	          3.39027275	          9.49461882	          3.76603611	          8.68509461	          1.81835760	        613.97321270	        131.09648449	        147.50590126	         81.69900118	          2.58439803	          4.15186740	        383.00202624	         77.80086647	       1197.54928238	       1685.95968565	         12.04622700	        412.41927573	        581.71422711	        715.99932186	          4.84373140	        217.01417956	        383.30017604	          0.19571259	          2.29578566	        167.52433735	        241.86534354	       1332.96503035	         -0.00004574	         64.30297665	         65.33780449	         -0.00004051	          0.27678240	         19.78436445	          4.98475267	        341.37808091	          5.39895440	        161.74959949	        198.37864281	         65.04277058	        213.80525670	        277.60254616	        267.33530087	        -49.70783586	        -34.84314283	          2.92251806	         52.94631431	         10.43062021	         13.44212999	        -15.88548708	         -6.26334664	          0.25089459	          0.06374136	
